HIERARCHY
ROOT Hips
{
	OFFSET 0.000000 0.000000 0.000000
	CHANNELS 6 Xposition Yposition Zposition Zrotation Yrotation Xrotation 
	JOINT Spine1
	{
		OFFSET -0.013727 5.003762 -0.053727
		CHANNELS 3 Zrotation Yrotation Xrotation
		JOINT Spine2
		{
			OFFSET -0.000000 7.125302 -0.029825
			CHANNELS 3 Zrotation Yrotation Xrotation
			JOINT Chest
			{
				OFFSET -0.000001 7.550065 -0.815971
				CHANNELS 3 Zrotation Yrotation Xrotation
				JOINT Neck1
				{
					OFFSET -0.181677 26.311296 -0.553348
					CHANNELS 3 Zrotation Yrotation Xrotation
					JOINT Neck2
					{
						OFFSET -0.000003 7.709399 2.302586
						CHANNELS 3 Zrotation Yrotation Xrotation
						JOINT Head
						{
							OFFSET -0.000005 6.128915 1.953708
							CHANNELS 3 Zrotation Yrotation Xrotation
							JOINT HeadEnd
							{
								OFFSET 0.003598 16.065401 -1.835379
								CHANNELS 3 Zrotation Yrotation Xrotation
								End Site
								{
									OFFSET 0.000000 0.000000 0.000000
								}
							}
							JOINT Jaw
							{
								OFFSET 0.002637 0.475590 3.094941
								CHANNELS 3 Zrotation Yrotation Xrotation
								End Site
								{
									OFFSET 0.000000 0.000000 0.000000
								}
							}
							JOINT LeftEye
							{
								OFFSET 3.206381 5.380207 7.586883
								CHANNELS 3 Zrotation Yrotation Xrotation
								End Site
								{
									OFFSET 0.000000 0.000000 0.000000
								}
							}
							JOINT RightEye
							{
								OFFSET -3.222440 5.361867 7.558233
								CHANNELS 3 Zrotation Yrotation Xrotation
								End Site
								{
									OFFSET 0.000000 0.000000 0.000000
								}
							}
						}
					}
				}
				JOINT LeftShoulder
				{
					OFFSET 1.621652 23.237165 5.113413
					CHANNELS 3 Zrotation Yrotation Xrotation
					JOINT LeftArm
					{
						OFFSET 14.919845 0.000000 -5.502326
						CHANNELS 3 Zrotation Yrotation Xrotation
						JOINT LeftForeArm
						{
							OFFSET 28.739309 0.000003 -0.002588
							CHANNELS 3 Zrotation Yrotation Xrotation
							JOINT LeftHand
							{
								OFFSET 27.093983 -0.000004 0.002609
								CHANNELS 3 Zrotation Yrotation Xrotation
								JOINT LeftHandThumb1
								{
									OFFSET 2.276481 -1.392045 3.191413
									CHANNELS 3 Zrotation Yrotation Xrotation
									JOINT LeftHandThumb2
									{
										OFFSET 4.012841 -1.828126 1.641656
										CHANNELS 3 Zrotation Yrotation Xrotation
										JOINT LeftHandThumb3
										{
											OFFSET 2.798516 0.000001 -0.000003
											CHANNELS 3 Zrotation Yrotation Xrotation
											JOINT LeftHandThumbEnd
											{
												OFFSET 3.180791 -0.000003 0.000003
												CHANNELS 3 Zrotation Yrotation Xrotation
												End Site
												{
													OFFSET 0.000000 0.000000 0.000000
												}
											}
										}
									}
								}
								JOINT LeftHandIndex1
								{
									OFFSET 3.247554 -0.531998 2.296169
									CHANNELS 3 Zrotation Yrotation Xrotation
									JOINT LeftHandIndex2
									{
										OFFSET 6.364579 0.012062 0.178600
										CHANNELS 3 Zrotation Yrotation Xrotation
										JOINT LeftHandIndex3
										{
											OFFSET 3.662366 -0.000000 -0.000000
											CHANNELS 3 Zrotation Yrotation Xrotation
											JOINT LeftHandIndex4
											{
												OFFSET 2.329243 0.000003 0.000005
												CHANNELS 3 Zrotation Yrotation Xrotation
												JOINT LeftHandIndexEnd
												{
													OFFSET 2.759619 -0.180538 -0.113024
													CHANNELS 3 Zrotation Yrotation Xrotation
													End Site
													{
														OFFSET 0.000000 0.000000 0.000000
													}
												}
											}
										}
									}
								}
								JOINT LeftHandMiddle1
								{
									OFFSET 3.163499 0.240981 1.000332
									CHANNELS 3 Zrotation Yrotation Xrotation
									JOINT LeftHandMiddle2
									{
										OFFSET 6.190777 -0.259277 -1.002548
										CHANNELS 3 Zrotation Yrotation Xrotation
										JOINT LeftHandMiddle3
										{
											OFFSET 4.356524 -0.000005 0.000001
											CHANNELS 3 Zrotation Yrotation Xrotation
											JOINT LeftHandMiddle4
											{
												OFFSET 2.996875 -0.000008 0.000001
												CHANNELS 3 Zrotation Yrotation Xrotation
												JOINT LeftHandMiddleEnd
												{
													OFFSET 2.304294 -0.294571 -0.031739
													CHANNELS 3 Zrotation Yrotation Xrotation
													End Site
													{
														OFFSET 0.000000 0.000000 0.000000
													}
												}
											}
										}
									}
								}
								JOINT LeftHandRing1
								{
									OFFSET 2.882642 -0.053650 -0.322543
									CHANNELS 3 Zrotation Yrotation Xrotation
									JOINT LeftHandRing2
									{
										OFFSET 5.854543 -0.486203 -1.373842
										CHANNELS 3 Zrotation Yrotation Xrotation
										JOINT LeftHandRing3
										{
											OFFSET 4.350580 -0.000000 0.000003
											CHANNELS 3 Zrotation Yrotation Xrotation
											JOINT LeftHandRing4
											{
												OFFSET 2.651324 0.000007 0.000004
												CHANNELS 3 Zrotation Yrotation Xrotation
												JOINT LeftHandRingEnd
												{
													OFFSET 1.936111 0.077684 -0.000069
													CHANNELS 3 Zrotation Yrotation Xrotation
													End Site
													{
														OFFSET 0.000000 0.000000 0.000000
													}
												}
											}
										}
									}
								}
								JOINT LeftHandPinky1
								{
									OFFSET 2.865498 -0.310004 -1.600378
									CHANNELS 3 Zrotation Yrotation Xrotation
									JOINT LeftHandPinky2
									{
										OFFSET 5.087855 -1.331141 -1.771231
										CHANNELS 3 Zrotation Yrotation Xrotation
										JOINT LeftHandPinky3
										{
											OFFSET 3.070975 0.000003 0.000001
											CHANNELS 3 Zrotation Yrotation Xrotation
											JOINT LeftHandPinky4
											{
												OFFSET 1.549667 -0.000000 0.000001
												CHANNELS 3 Zrotation Yrotation Xrotation
												JOINT LeftHandPinkyEnd
												{
													OFFSET 1.944895 -0.157802 0.057219
													CHANNELS 3 Zrotation Yrotation Xrotation
													End Site
													{
														OFFSET 0.000000 0.000000 0.000000
													}
												}
											}
										}
									}
								}
							}
						}
					}
				}
				JOINT RightShoulder
				{
					OFFSET -1.380118 23.180309 5.214158
					CHANNELS 3 Zrotation Yrotation Xrotation
					JOINT RightArm
					{
						OFFSET -15.037198 0.000012 -5.545604
						CHANNELS 3 Zrotation Yrotation Xrotation
						JOINT RightForeArm
						{
							OFFSET -28.736639 0.000004 -0.002597
							CHANNELS 3 Zrotation Yrotation Xrotation
							JOINT RightHand
							{
								OFFSET -27.133617 0.000000 0.002613
								CHANNELS 3 Zrotation Yrotation Xrotation
								JOINT RightHandThumb1
								{
									OFFSET -2.274036 -1.383991 3.163128
									CHANNELS 3 Zrotation Yrotation Xrotation
									JOINT RightHandThumb2
									{
										OFFSET -4.011429 -1.827468 1.640914
										CHANNELS 3 Zrotation Yrotation Xrotation
										JOINT RightHandThumb3
										{
											OFFSET -2.794935 -0.000003 -0.000004
											CHANNELS 3 Zrotation Yrotation Xrotation
											JOINT RightHandThumbEnd
											{
												OFFSET -3.183855 0.000003 -0.000000
												CHANNELS 3 Zrotation Yrotation Xrotation
												End Site
												{
													OFFSET 0.000000 0.000000 0.000000
												}
											}
										}
									}
								}
								JOINT RightHandIndex1
								{
									OFFSET -3.253268 -0.520060 2.282866
									CHANNELS 3 Zrotation Yrotation Xrotation
									JOINT RightHandIndex2
									{
										OFFSET -6.341918 0.012473 0.178265
										CHANNELS 3 Zrotation Yrotation Xrotation
										JOINT RightHandIndex3
										{
											OFFSET -3.654874 -0.000009 -0.000001
											CHANNELS 3 Zrotation Yrotation Xrotation
											JOINT RightHandIndex4
											{
												OFFSET -2.327586 0.000000 -0.000000
												CHANNELS 3 Zrotation Yrotation Xrotation
												JOINT RightHandIndexEnd
												{
													OFFSET -2.761789 -0.180657 -0.113079
													CHANNELS 3 Zrotation Yrotation Xrotation
													End Site
													{
														OFFSET 0.000000 0.000000 0.000000
													}
												}
											}
										}
									}
								}
								JOINT RightHandMiddle1
								{
									OFFSET -3.168106 0.246593 1.001031
									CHANNELS 3 Zrotation Yrotation Xrotation
									JOINT RightHandMiddle2
									{
										OFFSET -6.180830 -0.258835 -1.000896
										CHANNELS 3 Zrotation Yrotation Xrotation
										JOINT RightHandMiddle3
										{
											OFFSET -4.348906 -0.000000 -0.000001
											CHANNELS 3 Zrotation Yrotation Xrotation
											JOINT RightHandMiddle4
											{
												OFFSET -3.000242 -0.000004 -0.000002
												CHANNELS 3 Zrotation Yrotation Xrotation
												JOINT RightHandMiddleEnd
												{
													OFFSET -2.302518 -0.294370 -0.031706
													CHANNELS 3 Zrotation Yrotation Xrotation
													End Site
													{
														OFFSET 0.000000 0.000000 0.000000
													}
												}
											}
										}
									}
								}
								JOINT RightHandRing1
								{
									OFFSET -2.885694 -0.067952 -0.308858
									CHANNELS 3 Zrotation Yrotation Xrotation
									JOINT RightHandRing2
									{
										OFFSET -5.854197 -0.486132 -1.373732
										CHANNELS 3 Zrotation Yrotation Xrotation
										JOINT RightHandRing3
										{
											OFFSET -4.338815 -0.000002 -0.000000
											CHANNELS 3 Zrotation Yrotation Xrotation
											JOINT RightHandRing4
											{
												OFFSET -2.654906 -0.000004 0.000004
												CHANNELS 3 Zrotation Yrotation Xrotation
												JOINT RightHandRingEnd
												{
													OFFSET -1.933570 0.077524 -0.000052
													CHANNELS 3 Zrotation Yrotation Xrotation
													End Site
													{
														OFFSET 0.000000 0.000000 0.000000
													}
												}
											}
										}
									}
								}
								JOINT RightHandPinky1
								{
									OFFSET -2.866430 -0.342798 -1.584145
									CHANNELS 3 Zrotation Yrotation Xrotation
									JOINT RightHandPinky2
									{
										OFFSET -5.091370 -1.332054 -1.772385
										CHANNELS 3 Zrotation Yrotation Xrotation
										JOINT RightHandPinky3
										{
											OFFSET -3.062666 -0.000008 -0.000000
											CHANNELS 3 Zrotation Yrotation Xrotation
											JOINT RightHandPinky4
											{
												OFFSET -1.546527 0.000005 -0.000003
												CHANNELS 3 Zrotation Yrotation Xrotation
												JOINT RightHandPinkyEnd
												{
													OFFSET -1.945122 -0.157721 0.057211
													CHANNELS 3 Zrotation Yrotation Xrotation
													End Site
													{
														OFFSET 0.000000 0.000000 0.000000
													}
												}
											}
										}
									}
								}
							}
						}
					}
				}
			}
		}
	}
	JOINT LeftLeg
	{
		OFFSET 10.043214 -8.434526 2.595655
		CHANNELS 3 Zrotation Yrotation Xrotation
		JOINT LeftShin
		{
			OFFSET -0.000001 -43.221752 -0.802913
			CHANNELS 3 Zrotation Yrotation Xrotation
			JOINT LeftFoot
			{
				OFFSET 0.000001 -42.155094 -3.481522
				CHANNELS 3 Zrotation Yrotation Xrotation
				JOINT LeftToeBase
				{
					OFFSET 0.000000 -5.059475 13.231529
					CHANNELS 3 Zrotation Yrotation Xrotation
					JOINT LeftToeEnd
					{
						OFFSET -0.009607 -1.647615 6.513018
						CHANNELS 3 Zrotation Yrotation Xrotation
						End Site
						{
							OFFSET 0.000000 0.000000 0.000000
						}
					}
				}
			}
		}
	}
	JOINT RightLeg
	{
		OFFSET -10.047277 -8.295259 2.620317
		CHANNELS 3 Zrotation Yrotation Xrotation
		JOINT RightShin
		{
			OFFSET 0.000000 -43.362209 -0.805555
			CHANNELS 3 Zrotation Yrotation Xrotation
			JOINT RightFoot
			{
				OFFSET 0.000002 -42.117393 -3.478398
				CHANNELS 3 Zrotation Yrotation Xrotation
				JOINT RightToeBase
				{
					OFFSET -0.000001 -5.079609 13.284196
					CHANNELS 3 Zrotation Yrotation Xrotation
					JOINT RightToeEnd
					{
						OFFSET 0.009532 -1.634384 6.460591
						CHANNELS 3 Zrotation Yrotation Xrotation
						End Site
						{
							OFFSET 0.000000 0.000000 0.000000
						}
					}
				}
			}
		}
	}
}
MOTION
Frames: 4
Frame Time: 0.033333
5.371554 91.686813 -0.779153 -2.130248 0.260957 -3.157495 0.458102 -0.197786 5.785978 -0.196537 -1.337910 -2.788419 0.722517 -3.419805 9.745193 8.726206 -2.226902 14.214372 -3.700526 -10.689545 -3.088798 1.447338 -13.514068 -1.606074 0.000077 -0.000023 0.000007 -0.010928 -0.004945 -0.117212 0.817761 -3.721492 -10.727944 -0.849188 3.707439 -10.713615 21.182228 -14.791948 2.199034 -73.304497 -38.570229 1.076196 179.836487 -36.704617 -179.877243 7.845630 -6.212114 6.778553 -5.882102 9.861279 0.702591 -10.936861 -0.360574 7.156196 -0.000001 8.774814 -0.000001 -16.592793 18.138483 5.934501 -1.844031 2.498503 -2.507276 -10.163590 4.678939 4.621103 -20.975998 -0.000004 0.000003 -21.226257 2.451692 -3.593992 0.000000 -0.000006 -0.000001 -1.362680 2.240796 -0.746324 -21.334892 0.584908 3.008321 -13.821198 -0.000003 0.000002 -23.887133 -0.249079 -0.839481 -60.831070 2.334321 -1.610728 -0.294024 1.679686 0.833255 -14.218195 0.093214 1.300577 -34.212013 -0.287565 0.967170 -20.033180 0.964534 1.212842 -0.000000 -0.000000 -0.000000 -3.440385 0.788232 0.501655 -15.928167 -3.167306 2.999703 -6.338817 -0.000001 0.000002 -18.123415 3.648177 -4.905662 -0.000006 0.000000 -0.000003 -10.068845 17.552786 1.820060 35.351814 32.276958 -42.315178 177.573486 62.476727 178.112793 -2.696872 -8.835452 20.917709 2.243538 -5.255031 -3.180156 14.282875 -0.826593 6.952497 -0.000004 -12.690590 0.000001 15.670458 -17.208157 2.489910 1.665664 -1.955919 -2.878299 4.727794 -4.170583 4.993919 11.020513 0.000002 -0.000001 12.109032 -3.735707 -2.866780 -0.000000 -0.000001 0.000001 1.291985 -1.928548 -1.498088 14.800114 0.567469 3.865604 14.242553 -1.341733 -6.660648 19.631937 0.143927 -0.648243 49.638805 -0.852124 -6.079829 0.353027 -1.511149 -0.031941 20.222765 3.684309 2.316629 18.787245 0.000005 0.000001 10.751610 -0.479869 1.397905 0.000000 0.000001 0.000000 3.273805 0.305947 -0.580111 21.486788 11.830361 2.266130 8.162916 0.000001 0.000000 18.399048 -3.798976 -4.940566 0.000003 0.000000 -0.000001 16.767036 17.781384 -13.123678 -0.233676 -0.784419 45.224945 -13.919674 -3.303513 -22.343662 1.617228 -1.892727 -1.634962 -0.000000 0.000000 0.000002 -13.546076 -20.155016 -23.090137 0.470154 0.681733 36.360985 16.575253 10.442188 -4.028640 -1.447123 0.827992 -0.878689 0.000000 0.000000 -0.000001 
5.335569 91.699448 -0.744716 -2.068427 -0.069273 -3.106408 0.451389 -0.193850 5.774876 -0.163332 -1.326334 -2.758600 0.698313 -3.442238 9.828622 8.431458 -2.002098 14.153280 -3.742442 -10.626209 -3.094128 1.312532 -13.284191 -1.446270 0.000077 -0.000023 0.000004 0.004051 -0.054666 -0.119872 0.823170 -3.782680 -10.728503 -0.826907 3.677724 -10.719163 21.098568 -14.751690 2.325488 -72.952034 -38.346218 0.985472 179.581207 -36.750782 -179.780731 7.674300 -6.499236 6.043523 -5.882102 9.861278 0.702589 -10.936855 -0.360575 7.156196 -0.000001 8.774812 -0.000001 -16.491961 18.126684 5.892820 -1.844031 2.498503 -2.507276 -10.163587 4.678939 4.621103 -20.975994 -0.000005 0.000002 -21.226254 2.451692 -3.593993 0.000000 -0.000006 -0.000001 -1.362682 2.240797 -0.746324 -21.334887 0.584908 3.008320 -13.821194 -0.000003 0.000002 -23.887131 -0.249078 -0.839482 -60.713051 2.208285 -1.552391 -0.294023 1.679686 0.833256 -14.218192 0.093214 1.300578 -34.212006 -0.287564 0.967169 -20.033176 0.964535 1.212841 -0.000000 -0.000000 -0.000000 -3.440384 0.788233 0.501656 -15.928167 -3.167306 2.999702 -6.338816 -0.000002 0.000001 -18.123413 3.648176 -4.905662 -0.000005 -0.000000 -0.000002 -10.338022 17.587206 1.752277 35.542156 32.485374 -42.231163 177.271454 61.858532 177.880737 -2.606443 -8.806505 20.953354 2.243543 -5.255033 -3.180156 14.282877 -0.826593 6.952495 -0.000003 -12.690588 0.000000 15.619616 -17.168623 2.536118 1.665666 -1.955921 -2.878298 4.727790 -4.170583 4.993917 11.020513 0.000004 -0.000003 12.109034 -3.735711 -2.866778 -0.000000 -0.000001 0.000001 1.291986 -1.928548 -1.498088 14.800113 0.567467 3.865602 14.242553 -1.341734 -6.660649 19.631937 0.143926 -0.648245 49.701687 -0.858776 -6.034056 0.353028 -1.511148 -0.031940 20.222765 3.684305 2.316627 18.787245 0.000005 -0.000001 10.751610 -0.479864 1.397904 -0.000000 0.000001 -0.000000 3.273805 0.305948 -0.580111 21.486795 11.830367 2.266130 8.162916 0.000000 -0.000001 18.399054 -3.798977 -4.940570 0.000003 0.000000 -0.000001 16.714783 17.672989 -13.032364 -0.240905 -0.748923 45.227200 -13.974792 -2.922208 -22.298855 1.610149 -1.927706 -1.775491 -0.000000 0.000000 0.000002 -13.514950 -20.167379 -23.405960 0.491184 0.663473 36.666618 16.880102 10.839521 -3.665260 -1.452422 0.800578 -1.140725 0.000000 0.000000 -0.000001 
5.350168 91.670006 -0.778615 -2.004610 -0.337244 -3.000320 0.477990 -0.169741 5.770290 -0.151225 -1.333073 -2.756243 0.674644 -3.455060 9.904024 8.087852 -1.686485 14.095893 -3.779604 -10.504828 -3.100389 1.149634 -13.047890 -1.287693 0.000077 -0.000022 0.000005 0.018644 -0.079256 -0.128054 0.822377 -3.805312 -10.749948 -0.807759 3.658684 -10.743202 20.909460 -14.690266 2.437264 -72.313507 -38.225384 0.294986 179.493179 -36.809914 -179.841888 7.593649 -6.816459 5.213484 -5.882102 9.861279 0.702590 -10.936858 -0.360574 7.156198 0.000002 8.774812 0.000001 -16.327555 18.067039 5.874954 -1.844032 2.498502 -2.507275 -10.163589 4.678940 4.621105 -20.975994 -0.000003 0.000004 -21.226250 2.451694 -3.593992 0.000000 -0.000006 -0.000000 -1.362682 2.240797 -0.746324 -21.334887 0.584909 3.008322 -13.821198 -0.000002 0.000003 -23.887129 -0.249078 -0.839479 -60.662724 2.170982 -1.531540 -0.294024 1.679686 0.833256 -14.218192 0.093214 1.300579 -34.212006 -0.287563 0.967170 -20.033178 0.964535 1.212842 -0.000000 -0.000000 -0.000000 -3.440384 0.788233 0.501656 -15.928167 -3.167306 2.999705 -6.338815 -0.000002 0.000001 -18.123411 3.648176 -4.905659 -0.000005 -0.000000 -0.000002 -10.537414 17.596180 1.644164 35.801464 32.739452 -41.888401 177.085983 61.446449 177.807831 -2.583567 -8.484660 20.892942 2.243541 -5.255032 -3.180155 14.282877 -0.826594 6.952495 -0.000003 -12.690591 0.000001 15.546988 -17.152657 2.577860 1.665667 -1.955921 -2.878297 4.727795 -4.170584 4.993918 11.020514 0.000004 -0.000001 12.109033 -3.735711 -2.866779 0.000000 0.000001 0.000000 1.291986 -1.928547 -1.498089 14.800111 0.567469 3.865604 14.242551 -1.341732 -6.660648 19.631939 0.143925 -0.648242 49.647125 -0.859711 -6.088367 0.353028 -1.511150 -0.031940 20.222767 3.684305 2.316628 18.787245 0.000005 -0.000001 10.751610 -0.479869 1.397904 0.000000 0.000001 0.000000 3.273804 0.305947 -0.580111 21.486792 11.830369 2.266131 8.162917 0.000001 -0.000001 18.399054 -3.798978 -4.940568 0.000003 0.000000 -0.000001 16.616358 17.681900 -13.168808 -0.239736 -0.703475 45.438038 -13.957566 -2.654826 -22.286667 1.607980 -1.952097 -1.836269 -0.000000 -0.000002 0.000002 -13.501781 -20.226068 -23.835773 0.520498 0.650735 37.015438 17.098139 11.269044 -3.333554 -1.454242 0.771861 -1.361515 0.000000 0.000000 -0.000001 
5.376435 91.613075 -0.838601 -1.934078 -0.301007 -2.811891 0.514737 -0.162408 5.776068 -0.136645 -1.296926 -2.752998 0.680366 -3.545250 9.942145 7.675742 -1.246040 14.009351 -3.817864 -10.417476 -3.116363 0.982824 -12.851088 -1.168095 0.000078 -0.000022 0.000005 0.008865 -0.041661 -0.119772 0.808870 -3.798737 -10.777185 -0.806450 3.687269 -10.779126 20.567734 -14.592125 2.570255 -71.242836 -38.262260 -0.925220 179.636261 -36.905205 179.909195 7.662728 -7.136233 4.292144 -5.882100 9.861279 0.702591 -10.936858 -0.360576 7.156197 -0.000001 8.774814 -0.000002 -16.112268 17.990549 5.880319 -1.844031 2.498503 -2.507274 -10.163589 4.678940 4.621105 -20.975994 -0.000004 0.000004 -21.226250 2.451693 -3.593993 0.000000 -0.000006 -0.000001 -1.362682 2.240797 -0.746323 -21.334896 0.584908 3.008322 -13.821194 -0.000003 0.000003 -23.887129 -0.249077 -0.839480 -60.520882 2.178722 -1.573172 -0.294025 1.679686 0.833255 -14.218192 0.093215 1.300580 -34.211998 -0.287563 0.967171 -20.033178 0.964537 1.212842 -0.000000 -0.000000 -0.000000 -3.440385 0.788232 0.501656 -15.928165 -3.167307 2.999705 -6.338816 -0.000002 0.000001 -18.123411 3.648176 -4.905662 -0.000006 -0.000000 -0.000002 -10.563998 17.506065 1.519672 36.286053 32.932377 -41.448887 176.694336 60.989639 177.580750 -2.604865 -7.864597 20.195633 2.243541 -5.255033 -3.180155 14.282878 -0.826595 6.952495 -0.000002 -12.690590 -0.000000 15.419452 -17.111563 2.661846 1.665666 -1.955920 -2.878298 4.727794 -4.170585 4.993917 11.020512 0.000002 -0.000001 12.109034 -3.735711 -2.866780 0.000000 -0.000001 0.000001 1.291985 -1.928548 -1.498088 14.800114 0.567465 3.865605 14.242554 -1.341736 -6.660648 19.631939 0.143924 -0.648244 49.551277 -0.899500 -6.178731 0.353028 -1.511150 -0.031939 20.222773 3.684305 2.316628 18.787249 0.000004 -0.000001 10.751612 -0.479867 1.397904 -0.000000 -0.000000 -0.000000 3.273806 0.305946 -0.580110 21.486795 11.830362 2.266131 8.162916 0.000000 0.000000 18.399054 -3.798977 -4.940570 0.000003 -0.000002 -0.000001 16.438322 17.554586 -13.564196 -0.257314 -0.651428 45.703182 -13.816733 -2.441043 -22.369133 1.604995 -1.956588 -1.630133 0.000000 -0.000001 0.000002 -13.544032 -20.369925 -24.300602 0.548171 0.642793 37.440201 17.357058 11.436152 -3.134740 -1.447724 0.752351 -1.493313 -0.000000 -0.000000 -0.000001 
